<svg version="1.1" xmlns="http://www.w3.org/2000/svg" x="0px" y="0px"
	width="428.027px" height="428.027px" viewBox="0 0 428.027 428.027" style="enable-background:new 0 0 428.027 428.027;"
	xml:space="preserve">
<g fill="#fff">
	<path d="M264.854,321.907c-5.279,0-9.562-4.284-9.562-9.562v-58.179c0-5.278,4.283-9.562,9.562-9.562h22.203
		c14.344,0,19.756-7.171,21.707-11.437c4.725-10.395-0.469-25.417-14.268-41.233l-40.479-46.417
		c-10.967-12.584-25.627-19.479-41.281-19.479c-15.644,0-30.303,6.904-41.262,19.479l-40.488,46.417
		c-14.028,16.104-19.374,31.278-14.669,41.636c1.874,4.131,7.057,11.034,20.741,11.034h20.827c5.278,0,9.562,4.284,9.562,9.562
		v93.751c0,34.081,27.731,61.803,61.803,61.803h118.355c18.588,0,31.422-5.747,36.127-16.228c4.227-9.4,0.994-20.847-9.066-32.159
		c-19.162-21.572-37.207-39.416-64.078-39.416h-45.736V321.907z M371.389,387.937c-2.275,5.125-11.398,8.281-23.791,8.281H229.252
		c-26.613,0-48.282-21.669-48.282-48.301V237.843c0-3.729-3.021-6.741-6.751-6.741h-37.16c-2.62,0-7.201-0.431-8.434-3.136
		c-1.32-2.898-0.392-12.289,12.555-27.148l40.479-46.417c8.348-9.591,19.402-14.86,31.078-14.86
		c11.685,0,22.729,5.298,31.087,14.86l40.488,46.417c12.633,14.478,13.465,23.83,12.145,26.746c-1.396,3.061-6.494,3.538-9.4,3.538
		h-38.527c-3.729,0-6.76,3.013-6.76,6.741v90.825c0,3.729,3.031,6.761,6.76,6.761h62.061c21.287,0,36.404,15.099,53.98,34.884
		C370.795,377.303,373.291,383.758,371.389,387.937z"/>
	<path d="M349.184,18.308H78.853C35.372,18.308,0,49.777,0,88.41v45.384c0,13.674,11.121,24.776,24.786,24.776h96.591
		c1.932,0,3.777-0.851,5.059-2.276l55.979-63.151c7.172-8.09,17.413-12.718,28.123-12.718c9.371,0,18.388,3.529,25.398,9.917
		l72.627,66.45c1.254,1.138,2.869,1.788,4.57,1.788h90.107c13.676,0,24.787-11.102,24.787-24.776V88.419
		C428.037,49.777,392.656,18.308,349.184,18.308z M403.24,145.039h-77.914c-5.279,0-12.719-2.888-16.619-6.455l-63.648-58.245
		c-9.496-8.654-21.746-13.426-34.502-13.426c-14.583,0-28.515,6.263-38.24,17.25l-47.64,53.722
		c-3.5,3.95-10.624,7.153-15.903,7.153H24.786c-6.216,0-11.274-5.02-11.274-11.245V88.41c0-31.184,29.309-56.601,65.34-56.601
		h270.331c36.033,0,65.332,25.417,65.332,56.601v45.384C414.516,139.99,409.457,145.039,403.24,145.039z"/>
</g>
</svg>
